<svg width="68" height="68" viewBox="0 0 68 68" fill="none" xmlns="http://www.w3.org/2000/svg">
<path d="M34 51L45.3333 39.6667L41.3667 35.7L36.8333 40.2333V28.3333H31.1667V40.2333L26.6333 35.7L22.6667 39.6667L34 51ZM14.1667 59.5C12.6083 59.5 11.2743 58.9451 10.1646 57.8354C9.05486 56.7257 8.5 55.3917 8.5 53.8333V18.4875C8.5 17.8264 8.60625 17.1889 8.81875 16.575C9.03125 15.9611 9.35 15.3944 9.775 14.875L13.3167 10.5542C13.8361 9.89306 14.4854 9.38542 15.2646 9.03125C16.0437 8.67708 16.8583 8.5 17.7083 8.5H50.2917C51.1417 8.5 51.9562 8.67708 52.7354 9.03125C53.5146 9.38542 54.1639 9.89306 54.6833 10.5542L58.225 14.875C58.65 15.3944 58.9688 15.9611 59.1813 16.575C59.3938 17.1889 59.5 17.8264 59.5 18.4875V53.8333C59.5 55.3917 58.9451 56.7257 57.8354 57.8354C56.7257 58.9451 55.3917 59.5 53.8333 59.5H14.1667ZM15.3 17H52.7L50.2917 14.1667H17.7083L15.3 17Z" fill="#1D1B20"/>
</svg>
