<svg width="68" height="68" viewBox="0 0 68 68" fill="none" xmlns="http://www.w3.org/2000/svg">
<path d="M17 59.5001V56.6667L21.25 53.8334C18.4639 53.8334 16.1146 52.8772 14.2021 50.9647C12.2896 49.0522 11.3333 46.7029 11.3333 43.9167V17.0001C11.3333 13.0806 13.1514 10.2119 16.7875 8.39383C20.4236 6.57578 26.1611 5.66675 34 5.66675C42.1222 5.66675 47.9306 6.54036 51.425 8.28758C54.9195 10.0348 56.6667 12.939 56.6667 17.0001V43.9167C56.6667 46.7029 55.7104 49.0522 53.7979 50.9647C51.8854 52.8772 49.5361 53.8334 46.75 53.8334L51 56.6667V59.5001H17ZM17 28.3334H31.1667V19.8334H17V28.3334ZM36.8333 28.3334H51V19.8334H36.8333V28.3334ZM24.0833 45.3334C25.2639 45.3334 26.2674 44.9202 27.0938 44.0938C27.9201 43.2674 28.3333 42.264 28.3333 41.0834C28.3333 39.9029 27.9201 38.8994 27.0938 38.073C26.2674 37.2466 25.2639 36.8334 24.0833 36.8334C22.9028 36.8334 21.8993 37.2466 21.0729 38.073C20.2465 38.8994 19.8333 39.9029 19.8333 41.0834C19.8333 42.264 20.2465 43.2674 21.0729 44.0938C21.8993 44.9202 22.9028 45.3334 24.0833 45.3334ZM43.9167 45.3334C45.0972 45.3334 46.1007 44.9202 46.9271 44.0938C47.7535 43.2674 48.1667 42.264 48.1667 41.0834C48.1667 39.9029 47.7535 38.8994 46.9271 38.073C46.1007 37.2466 45.0972 36.8334 43.9167 36.8334C42.7361 36.8334 41.7326 37.2466 40.9063 38.073C40.0799 38.8994 39.6667 39.9029 39.6667 41.0834C39.6667 42.264 40.0799 43.2674 40.9063 44.0938C41.7326 44.9202 42.7361 45.3334 43.9167 45.3334ZM21.25 48.1667H46.75C47.9778 48.1667 48.9931 47.7654 49.7958 46.9626C50.5986 46.1598 51 45.1445 51 43.9167V34.0001H17V43.9167C17 45.1445 17.4014 46.1598 18.2042 46.9626C19.0069 47.7654 20.0222 48.1667 21.25 48.1667ZM34 11.3334C29.9389 11.3334 26.5743 11.5695 23.9063 12.0417C21.2382 12.514 19.3611 13.2223 18.275 14.1667H50.0083C49.1583 13.2223 47.3993 12.514 44.7313 12.0417C42.0632 11.5695 38.4861 11.3334 34 11.3334Z" fill="#1D1B20"/>
</svg>
