<svg width="68" height="68" viewBox="0 0 68 68" fill="none" xmlns="http://www.w3.org/2000/svg">
<path d="M14.1667 53.8333H18.2042L45.9 26.1375L41.8625 22.1L14.1667 49.7958V53.8333ZM8.5 59.5V47.4583L45.9 10.1292C46.4667 9.60972 47.0924 9.20833 47.7771 8.925C48.4618 8.64167 49.1819 8.5 49.9375 8.5C50.6931 8.5 51.425 8.64167 52.1333 8.925C52.8417 9.20833 53.4556 9.63333 53.975 10.2L57.8708 14.1667C58.4375 14.6861 58.8507 15.3 59.1104 16.0083C59.3701 16.7167 59.5 17.425 59.5 18.1333C59.5 18.8889 59.3701 19.609 59.1104 20.2937C58.8507 20.9785 58.4375 21.6042 57.8708 22.1708L20.5417 59.5H8.5ZM43.8458 24.1542L41.8625 22.1L45.9 26.1375L43.8458 24.1542Z" fill="#1D1B20"/>
</svg>
