<svg width="68" height="68" viewBox="0 0 68 68" fill="none" xmlns="http://www.w3.org/2000/svg">
<path d="M34 33.9999V5.66659C34 4.86381 34.2716 4.19089 34.8146 3.64784C35.3577 3.10478 36.0306 2.83325 36.8334 2.83325C37.6362 2.83325 38.3091 3.10478 38.8521 3.64784C39.3952 4.19089 39.6667 4.86381 39.6667 5.66659V33.9999H34ZM22.6667 33.9999V8.49992C22.6667 7.69714 22.9382 7.02422 23.4813 6.48117C24.0243 5.93811 24.6973 5.66659 25.5 5.66659C26.3028 5.66659 26.9757 5.93811 27.5188 6.48117C28.0618 7.02422 28.3334 7.69714 28.3334 8.49992V33.9999H22.6667ZM35.4167 65.1666C28.7112 65.1666 23.0209 62.8291 18.3459 58.1541C13.6709 53.4791 11.3334 47.7888 11.3334 41.0833V14.1666C11.3334 13.3638 11.6049 12.6909 12.148 12.1478C12.691 11.6048 13.3639 11.3333 14.1667 11.3333C14.9695 11.3333 15.6424 11.6048 16.1855 12.1478C16.7285 12.6909 17 13.3638 17 14.1666V41.0833C17 46.2305 18.7827 50.5867 22.348 54.152C25.9132 57.7173 30.2695 59.4999 35.4167 59.4999C40.5639 59.4999 44.9202 57.7173 48.4855 54.152C52.0507 50.5867 53.8334 46.2305 53.8334 41.0833V31.1666C53.0306 31.1666 52.3577 31.4381 51.8146 31.9812C51.2716 32.5242 51 33.1971 51 33.9999V45.3333H42.5C40.9417 45.3333 39.6077 45.8881 38.498 46.9978C37.3882 48.1076 36.8334 49.4416 36.8334 50.9999V53.8333H31.1667V50.9999C31.1667 47.8833 32.2764 45.2152 34.4959 42.9958C36.7153 40.7763 39.3834 39.6666 42.5 39.6666H45.3334V11.3333C45.3334 10.5305 45.6049 9.85756 46.148 9.3145C46.691 8.77145 47.3639 8.49992 48.1667 8.49992C48.9695 8.49992 49.6424 8.77145 50.1855 9.3145C50.7285 9.85756 51 10.5305 51 11.3333V25.9958C51.4723 25.8541 51.9327 25.736 52.3813 25.6416C52.8299 25.5471 53.3139 25.4999 53.8334 25.4999H59.5V41.0833C59.5 47.7888 57.1625 53.4791 52.4875 58.1541C47.8125 62.8291 42.1223 65.1666 35.4167 65.1666Z" fill="#1D1B20"/>
</svg>
