<svg width="68" height="68" viewBox="0 0 68 68" fill="none" xmlns="http://www.w3.org/2000/svg">
<path d="M34 62.3334L31.1666 53.8334H11.3333C9.77496 53.8334 8.44093 53.2786 7.33121 52.1688C6.22149 51.0591 5.66663 49.7251 5.66663 48.1667V11.3334C5.66663 9.77508 6.22149 8.44105 7.33121 7.33133C8.44093 6.22161 9.77496 5.66675 11.3333 5.66675H28.3333L30.8125 14.1667H56.6666C58.3194 14.1667 59.677 14.698 60.7395 15.7605C61.802 16.823 62.3333 18.1806 62.3333 19.8334V56.6667C62.3333 58.2251 61.802 59.5591 60.7395 60.6688C59.677 61.7786 58.3194 62.3334 56.6666 62.3334H34ZM20.2583 41.3667C23.5166 41.3667 26.1965 40.3161 28.2979 38.2147C30.3993 36.1133 31.45 33.3862 31.45 30.0334C31.45 29.6556 31.4382 29.3133 31.4145 29.0063C31.3909 28.6994 31.3319 28.3806 31.2375 28.0501H20.0458V32.4417H26.35C25.9722 33.764 25.252 34.7911 24.1895 35.523C23.127 36.2549 21.8402 36.6209 20.3291 36.6209C18.4875 36.6209 16.9055 35.9598 15.5833 34.6376C14.2611 33.3154 13.6 31.6862 13.6 29.7501C13.6 27.814 14.2611 26.1848 15.5833 24.8626C16.9055 23.5404 18.4875 22.8792 20.3291 22.8792C21.1791 22.8792 21.9819 23.0327 22.7375 23.3397C23.493 23.6466 24.1777 24.107 24.7916 24.7209L28.2625 21.3917C27.2708 20.3529 26.0784 19.5501 24.6854 18.9834C23.2923 18.4167 21.8166 18.1334 20.2583 18.1334C17.0944 18.1334 14.3909 19.2549 12.1479 21.498C9.90482 23.7411 8.78329 26.4917 8.78329 29.7501C8.78329 33.0084 9.90482 35.7591 12.1479 38.0022C14.3909 40.2452 17.0944 41.3667 20.2583 41.3667ZM39.2416 42.7834L40.8 41.2959C40.1388 40.4931 39.5368 39.714 38.9937 38.9584C38.4507 38.2029 37.9194 37.4001 37.4 36.5501L39.2416 42.7834ZM42.7833 39.1709C44.1055 37.6126 45.109 36.1251 45.7937 34.7084C46.4784 33.2917 46.9388 32.182 47.175 31.3792H35.9125L36.7625 34.3542H39.5958C39.9736 35.0626 40.4222 35.8299 40.9416 36.6563C41.4611 37.4827 42.075 38.3209 42.7833 39.1709ZM36.8333 59.5001H56.6666C57.5166 59.5001 58.2013 59.2286 58.7208 58.6855C59.2402 58.1424 59.5 57.4695 59.5 56.6667V19.8334C59.5 18.9834 59.2402 18.2987 58.7208 17.7792C58.2013 17.2598 57.5166 17.0001 56.6666 17.0001H31.6625L34.9916 28.4751H40.5875V25.5001H43.4916V28.4751H53.8333V31.3792H50.2208C49.7486 33.1737 49.0402 34.9209 48.0958 36.6209C47.1513 38.3209 46.0416 39.9029 44.7666 41.3667L52.4875 48.9459L50.4333 51.0001L42.7833 43.3501L40.2333 45.9709L42.5 53.8334L36.8333 59.5001Z" fill="#1D1B20"/>
</svg>
