<svg width="68" height="68" viewBox="0 0 68 68" fill="none" xmlns="http://www.w3.org/2000/svg">
<path d="M34 59.4999C32.0167 59.4999 30.3403 58.8152 28.9708 57.4458C27.6014 56.0763 26.9167 54.3999 26.9167 52.4166C26.9167 50.4333 27.6014 48.7569 28.9708 47.3874C30.3403 46.018 32.0167 45.3333 34 45.3333C35.9833 45.3333 37.6597 46.018 39.0292 47.3874C40.3986 48.7569 41.0833 50.4333 41.0833 52.4166C41.0833 54.3999 40.3986 56.0763 39.0292 57.4458C37.6597 58.8152 35.9833 59.4999 34 59.4999ZM17.9917 43.4916L12.0417 37.3999C14.8278 34.6138 18.0979 32.4062 21.8521 30.777C25.6062 29.1478 29.6556 28.3333 34 28.3333C38.3444 28.3333 42.3937 29.1596 46.1479 30.8124C49.9021 32.4652 53.1722 34.7083 55.9583 37.5416L50.0083 43.4916C47.9306 41.4138 45.5222 39.7846 42.7833 38.6041C40.0444 37.4235 37.1167 36.8333 34 36.8333C30.8833 36.8333 27.9556 37.4235 25.2167 38.6041C22.4778 39.7846 20.0694 41.4138 17.9917 43.4916ZM5.95 31.4499L0 25.4999C4.34444 21.061 9.42083 17.5902 15.2292 15.0874C21.0375 12.5846 27.2944 11.3333 34 11.3333C40.7056 11.3333 46.9625 12.5846 52.7708 15.0874C58.5792 17.5902 63.6556 21.061 68 25.4999L62.05 31.4499C58.4139 27.8138 54.1993 24.9687 49.4062 22.9145C44.6132 20.8603 39.4778 19.8333 34 19.8333C28.5222 19.8333 23.3868 20.8603 18.5937 22.9145C13.8007 24.9687 9.58611 27.8138 5.95 31.4499Z" fill="#1D1B20"/>
</svg>
