<svg width="658" height="742" viewBox="0 0 658 742" fill="none" xmlns="http://www.w3.org/2000/svg">
<circle cx="406.818" cy="17.8182" r="17.8182" fill="#191919"/>
<circle cx="406.818" cy="63.6364" r="17.8182" fill="#191919"/>
<circle cx="406.818" cy="109.818" r="17.8182" fill="#191919"/>
<circle cx="453.273" cy="17.8182" r="17.8182" fill="#191919"/>
<circle cx="499.727" cy="17.8182" r="17.8182" fill="#191919"/>
<circle cx="592.818" cy="17.8182" r="17.8182" fill="#191919"/>
<circle cx="546.182" cy="17.8182" r="17.8182" fill="#191919"/>
<circle cx="639.273" cy="17.8182" r="17.8182" fill="#191919"/>
<circle cx="453.273" cy="63.6364" r="17.8182" fill="#191919"/>
<circle cx="453.273" cy="109.818" r="17.8182" fill="#191919"/>
<circle cx="499.727" cy="63.6364" r="17.8182" fill="#191919"/>
<circle cx="499.727" cy="109.818" r="17.8182" fill="#191919"/>
<circle cx="592.818" cy="63.6364" r="17.8182" fill="#191919"/>
<circle cx="592.818" cy="109.818" r="17.8182" fill="#191919"/>
<circle cx="546.182" cy="63.6364" r="17.8182" fill="#191919"/>
<circle cx="546.182" cy="109.818" r="17.8182" fill="#191919"/>
<circle cx="639.273" cy="63.6364" r="17.8182" fill="#191919"/>
<circle cx="639.273" cy="109.818" r="17.8182" fill="#191919"/>
<path d="M267.003 660.048L278.5 584.955L209.515 634.897L223.528 544.714L149.872 597.889L160.651 521L99.9296 564.116V496.5L44.5 551.93" stroke="#191919" stroke-width="16.5276" stroke-linecap="round" stroke-linejoin="round"/>
<path d="M231.503 733.548L243 658.455L174.015 708.397L188.028 618.214L114.372 671.389L125.151 594.5L64.4296 637.616V570L9 625.43" stroke="#191919" stroke-width="16.5276" stroke-linecap="round" stroke-linejoin="round"/>
</svg>
