<svg width="1626" height="1328" viewBox="0 0 1626 1328" fill="none" xmlns="http://www.w3.org/2000/svg">
<circle cx="17.8182" cy="17.8182" r="17.8182" fill="#191919"/>
<circle cx="17.8182" cy="63.6365" r="17.8182" fill="#191919"/>
<circle cx="17.8182" cy="109.818" r="17.8182" fill="#191919"/>
<circle cx="64.2727" cy="17.8182" r="17.8182" fill="#191919"/>
<circle cx="110.727" cy="17.8182" r="17.8182" fill="#191919"/>
<circle cx="203.818" cy="17.8182" r="17.8182" fill="#191919"/>
<circle cx="157.182" cy="17.8182" r="17.8182" fill="#191919"/>
<circle cx="250.273" cy="17.8182" r="17.8182" fill="#191919"/>
<circle cx="64.2727" cy="63.6365" r="17.8182" fill="#191919"/>
<circle cx="64.2727" cy="109.818" r="17.8182" fill="#191919"/>
<circle cx="110.727" cy="63.6365" r="17.8182" fill="#191919"/>
<circle cx="110.727" cy="109.818" r="17.8182" fill="#191919"/>
<circle cx="203.818" cy="63.6365" r="17.8182" fill="#191919"/>
<circle cx="203.818" cy="109.818" r="17.8182" fill="#191919"/>
<circle cx="157.182" cy="63.6365" r="17.8182" fill="#191919"/>
<circle cx="157.182" cy="109.818" r="17.8182" fill="#191919"/>
<circle cx="250.273" cy="63.6365" r="17.8182" fill="#191919"/>
<circle cx="250.273" cy="109.818" r="17.8182" fill="#191919"/>
<path d="M1581.57 1153.12L1520.85 1110L1531.63 1186.89L1457.97 1133.71L1471.98 1223.9L1403 1173.95L1414.5 1249.05" stroke="#191919" stroke-width="16.5276" stroke-linecap="round" stroke-linejoin="round"/>
<path d="M1617.5 1222.82L1556.78 1179.7L1567.56 1256.59L1493.9 1203.42L1507.91 1293.6L1438.93 1243.66L1450.43 1318.75" stroke="#191919" stroke-width="16.5276" stroke-linecap="round" stroke-linejoin="round"/>
</svg>
